<mxfile host="app.diagrams.net" agent="Mozilla/5.0 (Windows NT 10.0; Win64; x64) AppleWebKit/537.36 (KHTML, like Gecko) Chrome/135.0.0.0 Safari/537.36" version="26.2.9">
  <diagram name="Page-1" id="E8S3hVKCQu4bt3sEFYD-">
    <mxGraphModel dx="2233" dy="1237" grid="0" gridSize="10" guides="1" tooltips="1" connect="1" arrows="1" fold="1" page="0" pageScale="1" pageWidth="850" pageHeight="1100" math="0" shadow="0">
      <root>
        <mxCell id="0" />
        <mxCell id="1" parent="0" />
        <mxCell id="8diptp-QD4cBWiH47peg-25" style="edgeStyle=none;curved=1;rounded=0;orthogonalLoop=1;jettySize=auto;html=1;entryX=0;entryY=0.5;entryDx=0;entryDy=0;fontSize=12;startSize=8;endSize=8;" edge="1" parent="1" source="8diptp-QD4cBWiH47peg-2" target="8diptp-QD4cBWiH47peg-9">
          <mxGeometry relative="1" as="geometry" />
        </mxCell>
        <mxCell id="8diptp-QD4cBWiH47peg-26" style="edgeStyle=none;curved=1;rounded=0;orthogonalLoop=1;jettySize=auto;html=1;entryX=0;entryY=0.5;entryDx=0;entryDy=0;fontSize=12;startSize=8;endSize=8;" edge="1" parent="1" source="8diptp-QD4cBWiH47peg-2" target="8diptp-QD4cBWiH47peg-22">
          <mxGeometry relative="1" as="geometry" />
        </mxCell>
        <mxCell id="8diptp-QD4cBWiH47peg-27" style="edgeStyle=none;curved=1;rounded=0;orthogonalLoop=1;jettySize=auto;html=1;entryX=0;entryY=0.5;entryDx=0;entryDy=0;fontSize=12;startSize=8;endSize=8;" edge="1" parent="1" source="8diptp-QD4cBWiH47peg-2" target="8diptp-QD4cBWiH47peg-19">
          <mxGeometry relative="1" as="geometry" />
        </mxCell>
        <mxCell id="8diptp-QD4cBWiH47peg-2" value="Kong Gateway" style="ellipse;whiteSpace=wrap;html=1;" vertex="1" parent="1">
          <mxGeometry x="191" y="64" width="120" height="80" as="geometry" />
        </mxCell>
        <mxCell id="8diptp-QD4cBWiH47peg-7" style="edgeStyle=none;curved=1;rounded=0;orthogonalLoop=1;jettySize=auto;html=1;entryX=0;entryY=0.5;entryDx=0;entryDy=0;fontSize=12;startSize=8;endSize=8;" edge="1" parent="1" source="8diptp-QD4cBWiH47peg-4" target="8diptp-QD4cBWiH47peg-5">
          <mxGeometry relative="1" as="geometry" />
        </mxCell>
        <mxCell id="8diptp-QD4cBWiH47peg-4" value="Client" style="shape=umlActor;verticalLabelPosition=bottom;verticalAlign=top;html=1;outlineConnect=0;" vertex="1" parent="1">
          <mxGeometry x="-186" y="78" width="30" height="60" as="geometry" />
        </mxCell>
        <mxCell id="8diptp-QD4cBWiH47peg-8" style="edgeStyle=none;curved=1;rounded=0;orthogonalLoop=1;jettySize=auto;html=1;entryX=0;entryY=0.5;entryDx=0;entryDy=0;fontSize=12;startSize=8;endSize=8;" edge="1" parent="1" source="8diptp-QD4cBWiH47peg-5" target="8diptp-QD4cBWiH47peg-2">
          <mxGeometry relative="1" as="geometry" />
        </mxCell>
        <mxCell id="8diptp-QD4cBWiH47peg-5" value="Website" style="ellipse;whiteSpace=wrap;html=1;" vertex="1" parent="1">
          <mxGeometry x="-20" y="67" width="120" height="80" as="geometry" />
        </mxCell>
        <mxCell id="8diptp-QD4cBWiH47peg-9" value="Product Service" style="ellipse;whiteSpace=wrap;html=1;" vertex="1" parent="1">
          <mxGeometry x="436" y="-80" width="120" height="80" as="geometry" />
        </mxCell>
        <mxCell id="8diptp-QD4cBWiH47peg-10" value="MongoDB" style="shape=cylinder3;whiteSpace=wrap;html=1;boundedLbl=1;backgroundOutline=1;size=15;" vertex="1" parent="1">
          <mxGeometry x="717" y="-80" width="60" height="80" as="geometry" />
        </mxCell>
        <mxCell id="8diptp-QD4cBWiH47peg-11" style="edgeStyle=none;curved=1;rounded=0;orthogonalLoop=1;jettySize=auto;html=1;entryX=0;entryY=0.5;entryDx=0;entryDy=0;entryPerimeter=0;fontSize=12;startSize=8;endSize=8;" edge="1" parent="1" source="8diptp-QD4cBWiH47peg-9" target="8diptp-QD4cBWiH47peg-10">
          <mxGeometry relative="1" as="geometry" />
        </mxCell>
        <mxCell id="8diptp-QD4cBWiH47peg-19" value="Order Service" style="ellipse;whiteSpace=wrap;html=1;" vertex="1" parent="1">
          <mxGeometry x="436" y="177" width="120" height="80" as="geometry" />
        </mxCell>
        <mxCell id="8diptp-QD4cBWiH47peg-20" value="MongoDB" style="shape=cylinder3;whiteSpace=wrap;html=1;boundedLbl=1;backgroundOutline=1;size=15;" vertex="1" parent="1">
          <mxGeometry x="713" y="177" width="60" height="80" as="geometry" />
        </mxCell>
        <mxCell id="8diptp-QD4cBWiH47peg-21" style="edgeStyle=none;curved=1;rounded=0;orthogonalLoop=1;jettySize=auto;html=1;entryX=0;entryY=0.5;entryDx=0;entryDy=0;entryPerimeter=0;fontSize=12;startSize=8;endSize=8;" edge="1" parent="1" source="8diptp-QD4cBWiH47peg-19" target="8diptp-QD4cBWiH47peg-20">
          <mxGeometry relative="1" as="geometry" />
        </mxCell>
        <mxCell id="8diptp-QD4cBWiH47peg-22" value="Customer Service" style="ellipse;whiteSpace=wrap;html=1;" vertex="1" parent="1">
          <mxGeometry x="436" y="59" width="120" height="80" as="geometry" />
        </mxCell>
        <mxCell id="8diptp-QD4cBWiH47peg-23" value="MongoDB" style="shape=cylinder3;whiteSpace=wrap;html=1;boundedLbl=1;backgroundOutline=1;size=15;" vertex="1" parent="1">
          <mxGeometry x="717" y="59" width="60" height="80" as="geometry" />
        </mxCell>
        <mxCell id="8diptp-QD4cBWiH47peg-24" style="edgeStyle=none;curved=1;rounded=0;orthogonalLoop=1;jettySize=auto;html=1;entryX=0;entryY=0.5;entryDx=0;entryDy=0;entryPerimeter=0;fontSize=12;startSize=8;endSize=8;" edge="1" parent="1" source="8diptp-QD4cBWiH47peg-22" target="8diptp-QD4cBWiH47peg-23">
          <mxGeometry relative="1" as="geometry" />
        </mxCell>
        <mxCell id="8diptp-QD4cBWiH47peg-28" value="" style="shape=image;verticalLabelPosition=bottom;labelBackgroundColor=default;verticalAlign=top;aspect=fixed;imageAspect=0;image=https://www.svgrepo.com/show/331488/mongodb.svg;" vertex="1" parent="1">
          <mxGeometry x="787" y="193" width="52" height="52" as="geometry" />
        </mxCell>
        <mxCell id="8diptp-QD4cBWiH47peg-30" value="" style="shape=image;verticalLabelPosition=bottom;labelBackgroundColor=default;verticalAlign=top;aspect=fixed;imageAspect=0;image=https://www.svgrepo.com/show/331488/mongodb.svg;" vertex="1" parent="1">
          <mxGeometry x="787" y="78" width="52" height="52" as="geometry" />
        </mxCell>
        <mxCell id="8diptp-QD4cBWiH47peg-31" value="" style="shape=image;verticalLabelPosition=bottom;labelBackgroundColor=default;verticalAlign=top;aspect=fixed;imageAspect=0;image=https://www.svgrepo.com/show/331488/mongodb.svg;" vertex="1" parent="1">
          <mxGeometry x="791" y="-60" width="52" height="52" as="geometry" />
        </mxCell>
        <mxCell id="8diptp-QD4cBWiH47peg-34" value="" style="shape=image;verticalLabelPosition=bottom;labelBackgroundColor=default;verticalAlign=top;aspect=fixed;imageAspect=0;image=https://cdn.hashnode.com/res/hashnode/image/upload/v1703155483443/e42a7be2-890a-4bd2-accf-306e53ccebbd.png;" vertex="1" parent="1">
          <mxGeometry x="514" y="-113" width="67" height="67" as="geometry" />
        </mxCell>
        <mxCell id="8diptp-QD4cBWiH47peg-36" value="" style="shape=image;verticalLabelPosition=bottom;labelBackgroundColor=default;verticalAlign=top;aspect=fixed;imageAspect=0;image=https://cdn.hashnode.com/res/hashnode/image/upload/v1703155483443/e42a7be2-890a-4bd2-accf-306e53ccebbd.png;" vertex="1" parent="1">
          <mxGeometry x="507" y="147" width="67" height="67" as="geometry" />
        </mxCell>
        <mxCell id="8diptp-QD4cBWiH47peg-37" value="" style="shape=image;verticalLabelPosition=bottom;labelBackgroundColor=default;verticalAlign=top;aspect=fixed;imageAspect=0;image=https://cdn.hashnode.com/res/hashnode/image/upload/v1703155483443/e42a7be2-890a-4bd2-accf-306e53ccebbd.png;" vertex="1" parent="1">
          <mxGeometry x="502" y="25" width="67" height="67" as="geometry" />
        </mxCell>
        <mxCell id="8diptp-QD4cBWiH47peg-39" value="" style="shape=image;verticalLabelPosition=bottom;labelBackgroundColor=default;verticalAlign=top;aspect=fixed;imageAspect=0;image=https://seeklogo.com/images/K/kong-logo-30290787E5-seeklogo.com.png;" vertex="1" parent="1">
          <mxGeometry x="220" y="-8" width="67" height="67" as="geometry" />
        </mxCell>
        <mxCell id="8diptp-QD4cBWiH47peg-40" value="&lt;div style=&quot;color: rgb(248, 248, 242); background-color: rgb(40, 42, 54); font-family: &amp;quot;JetBrains Mono&amp;quot;, monospace, Consolas, &amp;quot;Courier New&amp;quot;, monospace; font-size: 14px; line-height: 19px; white-space: pre;&quot;&gt;5000&lt;/div&gt;" style="text;html=1;align=center;verticalAlign=middle;whiteSpace=wrap;rounded=0;" vertex="1" parent="1">
          <mxGeometry x="323" y="-46" width="60" height="30" as="geometry" />
        </mxCell>
        <mxCell id="8diptp-QD4cBWiH47peg-41" value="&lt;div style=&quot;color: rgb(248, 248, 242); background-color: rgb(40, 42, 54); font-family: &amp;quot;JetBrains Mono&amp;quot;, monospace, Consolas, &amp;quot;Courier New&amp;quot;, monospace; font-size: 14px; line-height: 19px; white-space: pre;&quot;&gt;5001&lt;/div&gt;" style="text;html=1;align=center;verticalAlign=middle;whiteSpace=wrap;rounded=0;" vertex="1" parent="1">
          <mxGeometry x="326" y="193" width="60" height="30" as="geometry" />
        </mxCell>
        <mxCell id="8diptp-QD4cBWiH47peg-42" value="&lt;div style=&quot;color: rgb(248, 248, 242); background-color: rgb(40, 42, 54); font-family: &amp;quot;JetBrains Mono&amp;quot;, monospace, Consolas, &amp;quot;Courier New&amp;quot;, monospace; font-size: 14px; line-height: 19px; white-space: pre;&quot;&gt;5002&lt;/div&gt;" style="text;html=1;align=center;verticalAlign=middle;whiteSpace=wrap;rounded=0;" vertex="1" parent="1">
          <mxGeometry x="353" y="64" width="60" height="30" as="geometry" />
        </mxCell>
      </root>
    </mxGraphModel>
  </diagram>
</mxfile>
